<svg xmlns="http://www.w3.org/2000/svg" viewBox="0 0 512 512">
    <!-- Stylized version of fa-layer-group in #4a6fa5 -->
    <path fill="#4a6fa5" d="M12.41 148.02l232.94 105.67c6.8 3.09 14.49 3.09 21.29 0l232.94-105.67c16.5-7.49 16.5-31.12 0-38.61L266.65 3.74c-6.8-3.09-14.49-3.09-21.29 0L12.41 109.41c-16.5 7.49-16.5 31.12 0 38.61zM245.35 325.37l-193.77-88.47c-16.5-7.53-32.72 15.14-16.22 22.66l193.77 88.47c6.8 3.1 14.49 3.1 21.29 0l193.77-88.47c16.5-7.52.28-30.19-16.22-22.66l-193.77 88.47c-2.12.97-4.41 1.45-6.71 1.45s-4.59-.48-6.71-1.45zm0 131.58l-193.77-88.47c-16.5-7.53-32.72 15.14-16.22 22.66l193.77 88.47c6.8 3.1 14.49 3.1 21.29 0l193.77-88.47c16.5-7.52.28-30.19-16.22-22.66l-193.77 88.47c-2.12.97-4.41 1.45-6.71 1.45s-4.59-.48-6.71-1.45z"/>
</svg>